# xmcd CD database file
#
# Track frame offsets:
#	150
#	17064
#	34395
#	52276
#	66948
#	84851
#	97354
#	111074
#	133505
#	148620
#
# Disc length: 2226 seconds
#
# Revision: 0
# Processed by: cddbd v1.5.1PL2 Copyright (c) Steve Scherf et al.
# Submitted via: CDex 1.51
#
DISCID=9108b00a
DTITLE=Mason Ruffner - Mason Ruffner
DYEAR=1985
DGENRE=Blues
TTITLE0=Just Be My Friend
TTITLE1=Lady Moon
TTITLE2=Gamblin' Fever
TTITLE3=Down To New Orleans
TTITLE4=Bon Ton Roule
TTITLE5=Gravediggers
TTITLE6=Ain't Nothin' But Trouble
TTITLE7=Stranded
TTITLE8=Lay It On Me
TTITLE9=Serenata
EXTD=YEAR: 1985
EXTT0=
EXTT1=
EXTT2=
EXTT3=
EXTT4=
EXTT5=
EXTT6=
EXTT7=
EXTT8=
EXTT9=
PLAYORDER=
